<svg width="40" height="40" viewBox="0 0 40 40" fill="none" xmlns="http://www.w3.org/2000/svg">
<circle cx="20" cy="20" r="19" fill="#333333"/>
<path fill-rule="evenodd" clip-rule="evenodd" d="M20.1864 39.9603C31.1171 39.9603 39.978 31.0995 39.978 20.1689C39.978 9.2382 31.1171 0.377197 20.1864 0.377197C9.25577 0.377197 0.394775 9.2382 0.394775 20.1689C0.394775 31.0995 9.25577 39.9603 20.1864 39.9603ZM34.6988 16.0823C34.6918 17.7411 33.1974 18.6447 31.973 17.9414C29.5568 16.5538 26.9585 15.688 24.2347 15.1916C19.1188 14.2593 14.021 14.2285 8.96511 15.6102C7.88194 15.9063 6.9004 15.3888 6.60223 14.3688C6.30811 13.3625 6.87007 12.3817 7.94707 12.0581C9.7894 11.5045 11.6787 11.192 13.5901 11.0129C15.6929 10.8157 17.7997 10.7736 19.9078 10.9227C24.5333 11.2501 29.0075 12.1632 33.1456 14.3656C33.3781 14.4894 33.6095 14.6172 33.8312 14.759C34.4054 15.1267 34.6931 15.657 34.6988 16.0823ZM16.8731 17.6395C21.217 17.6594 25.3879 18.4774 29.3181 20.377C29.9362 20.6757 30.5397 21.0104 31.1259 21.3678C31.9147 21.8486 32.1344 22.7568 31.6785 23.4948C31.2165 24.2427 30.3175 24.4618 29.5334 23.9938C26.5262 22.1988 23.2464 21.2706 19.7878 20.8942C16.4194 20.5274 13.1017 20.7504 9.83932 21.6966C8.97678 21.9467 8.14294 21.4855 7.89982 20.6543C7.65969 19.8331 8.12598 18.9962 8.99232 18.7341C10.1833 18.3737 11.3977 18.1084 12.6291 17.9326C14.0352 17.7319 15.4485 17.6082 16.8731 17.6395ZM28.7867 27.3675C29.6041 27.8769 29.7448 28.7917 29.1039 29.3934C28.679 29.7923 28.1081 29.8466 27.5689 29.5091C25.6627 28.3162 23.604 27.5112 21.4043 27.0592C18.9173 26.5482 16.412 26.4913 13.8934 26.7559C12.6857 26.8828 11.4886 27.0712 10.299 27.3172C9.55752 27.4706 8.93336 27.0467 8.78544 26.3333C8.64982 25.6792 9.13361 25.0564 9.82252 24.8952C13.3688 24.0654 14.7638 24.0011 17.2755 24.0299C21.3906 24.124 25.2622 25.1715 28.7867 27.3675Z" fill="#1ED760"/>
</svg>
